<mxfile host="65bd71144e">
    <diagram id="puAR1FpmDUtqjZ42kFOn" name="Страница 1">
        <mxGraphModel dx="922" dy="538" grid="1" gridSize="10" guides="1" tooltips="1" connect="1" arrows="1" fold="1" page="1" pageScale="1" pageWidth="827" pageHeight="1169" math="0" shadow="0">
            <root>
                <mxCell id="0"/>
                <mxCell id="1" parent="0"/>
                <mxCell id="10" value="" style="edgeStyle=none;html=1;fontColor=#FFFFFF;" parent="1" source="2" target="3" edge="1">
                    <mxGeometry relative="1" as="geometry"/>
                </mxCell>
                <mxCell id="2" value="&lt;font color=&quot;#ffffff&quot;&gt;start&lt;/font&gt;" style="ellipse;whiteSpace=wrap;html=1;fillColor=#000000;" parent="1" vertex="1">
                    <mxGeometry x="324" width="180" height="70" as="geometry"/>
                </mxCell>
                <mxCell id="11" value="" style="edgeStyle=none;html=1;fontColor=#FFFFFF;" parent="1" source="3" target="5" edge="1">
                    <mxGeometry relative="1" as="geometry"/>
                </mxCell>
                <mxCell id="3" value="&lt;p class=&quot;p1&quot; style=&quot;margin: 0px ; font-stretch: normal ; font-size: 13px ; line-height: normal ; font-family: &amp;#34;helvetica neue&amp;#34;&quot;&gt;&lt;font color=&quot;#ffffff&quot;&gt;string[] firstArray = { &quot;1234&quot;, &quot;1567&quot;, &quot;-2&quot;, &quot;computer science&quot;};&lt;/font&gt;&lt;/p&gt;&lt;p class=&quot;p1&quot; style=&quot;margin: 0px ; font-stretch: normal ; font-size: 13px ; line-height: normal ; font-family: &amp;#34;helvetica neue&amp;#34;&quot;&gt;&lt;font color=&quot;#ffffff&quot;&gt;string[] newArray = GetArray(firstArray);&lt;/font&gt;&lt;/p&gt;&lt;p class=&quot;p1&quot; style=&quot;margin: 0px ; font-stretch: normal ; font-size: 13px ; line-height: normal ; font-family: &amp;#34;helvetica neue&amp;#34;&quot;&gt;&lt;font color=&quot;#ffffff&quot;&gt;var i = 0;&lt;/font&gt;&lt;/p&gt;&lt;p class=&quot;p1&quot; style=&quot;margin: 0px ; font-stretch: normal ; font-size: 13px ; line-height: normal ; font-family: &amp;#34;helvetica neue&amp;#34;&quot;&gt;&lt;font color=&quot;#ffffff&quot;&gt;int realSize = 0;&amp;nbsp;&lt;/font&gt;&lt;/p&gt;" style="shape=parallelogram;perimeter=parallelogramPerimeter;whiteSpace=wrap;html=1;fixedSize=1;fillColor=#000000;" parent="1" vertex="1">
                    <mxGeometry x="199" y="100" width="430" height="60" as="geometry"/>
                </mxCell>
                <mxCell id="22" value="" style="edgeStyle=none;html=1;fontColor=#FFFFFF;" parent="1" source="4" target="21" edge="1">
                    <mxGeometry relative="1" as="geometry">
                        <Array as="points">
                            <mxPoint x="660" y="215"/>
                        </Array>
                    </mxGeometry>
                </mxCell>
                <mxCell id="4" value="i &amp;lt; firstArray.Length" style="rhombus;whiteSpace=wrap;html=1;fontColor=#FFFFFF;fillColor=#000000;" parent="1" vertex="1">
                    <mxGeometry x="287" y="190" width="253" height="50" as="geometry"/>
                </mxCell>
                <mxCell id="12" value="" style="edgeStyle=none;html=1;fontColor=#FFFFFF;" parent="1" source="5" target="6" edge="1">
                    <mxGeometry relative="1" as="geometry"/>
                </mxCell>
                <mxCell id="14" style="edgeStyle=none;html=1;entryX=1;entryY=0.5;entryDx=0;entryDy=0;fontColor=#FFFFFF;" parent="1" source="5" target="8" edge="1">
                    <mxGeometry relative="1" as="geometry"/>
                </mxCell>
                <mxCell id="5" value="firstArray[i].Length &amp;lt;= 3" style="rhombus;whiteSpace=wrap;html=1;fontColor=#FFFFFF;fillColor=#000000;" parent="1" vertex="1">
                    <mxGeometry x="287.5" y="270" width="253" height="50" as="geometry"/>
                </mxCell>
                <mxCell id="13" value="" style="edgeStyle=none;html=1;fontColor=#FFFFFF;" parent="1" source="6" target="7" edge="1">
                    <mxGeometry relative="1" as="geometry"/>
                </mxCell>
                <mxCell id="6" value="newArray[realSize] = firstArray[i];" style="rounded=0;whiteSpace=wrap;html=1;fontColor=#FFFFFF;fillColor=#000000;" parent="1" vertex="1">
                    <mxGeometry x="292" y="350" width="244" height="60" as="geometry"/>
                </mxCell>
                <mxCell id="15" style="edgeStyle=none;html=1;fontColor=#FFFFFF;exitX=0.008;exitY=0.633;exitDx=0;exitDy=0;exitPerimeter=0;" parent="1" source="7" target="8" edge="1">
                    <mxGeometry relative="1" as="geometry">
                        <Array as="points">
                            <mxPoint x="120" y="480"/>
                        </Array>
                    </mxGeometry>
                </mxCell>
                <mxCell id="7" value="realSize ++;" style="rounded=0;whiteSpace=wrap;html=1;fontColor=#FFFFFF;fillColor=#000000;" parent="1" vertex="1">
                    <mxGeometry x="354" y="440" width="120" height="60" as="geometry"/>
                </mxCell>
                <mxCell id="16" style="edgeStyle=none;html=1;fontColor=#FFFFFF;" parent="1" source="8" edge="1">
                    <mxGeometry relative="1" as="geometry">
                        <mxPoint x="410" y="180" as="targetPoint"/>
                        <Array as="points">
                            <mxPoint x="120" y="180"/>
                        </Array>
                    </mxGeometry>
                </mxCell>
                <mxCell id="8" value="i++;" style="rounded=0;whiteSpace=wrap;html=1;fontColor=#FFFFFF;fillColor=#000000;" parent="1" vertex="1">
                    <mxGeometry x="60" y="265" width="120" height="60" as="geometry"/>
                </mxCell>
                <mxCell id="18" value="yes" style="text;html=1;align=center;verticalAlign=middle;resizable=0;points=[];autosize=1;strokeColor=none;fillColor=none;fontColor=#FFFFFF;" parent="1" vertex="1">
                    <mxGeometry x="414" y="245" width="30" height="20" as="geometry"/>
                </mxCell>
                <mxCell id="19" value="yes" style="text;html=1;align=center;verticalAlign=middle;resizable=0;points=[];autosize=1;strokeColor=none;fillColor=none;fontColor=#FFFFFF;" parent="1" vertex="1">
                    <mxGeometry x="420" y="325" width="30" height="20" as="geometry"/>
                </mxCell>
                <mxCell id="20" value="no" style="text;html=1;align=center;verticalAlign=middle;resizable=0;points=[];autosize=1;strokeColor=none;fillColor=none;fontColor=#FFFFFF;" parent="1" vertex="1">
                    <mxGeometry x="195" y="270" width="30" height="20" as="geometry"/>
                </mxCell>
                <mxCell id="25" value="" style="edgeStyle=none;html=1;fontColor=#FFFFFF;" parent="1" source="21" target="24" edge="1">
                    <mxGeometry relative="1" as="geometry"/>
                </mxCell>
                <mxCell id="21" value="Array.Resize" style="whiteSpace=wrap;html=1;fontColor=#FFFFFF;fillColor=#000000;" parent="1" vertex="1">
                    <mxGeometry x="600" y="560" width="120" height="40" as="geometry"/>
                </mxCell>
                <mxCell id="23" value="no" style="text;html=1;align=center;verticalAlign=middle;resizable=0;points=[];autosize=1;strokeColor=none;fillColor=none;fontColor=#FFFFFF;" parent="1" vertex="1">
                    <mxGeometry x="560" y="195" width="30" height="20" as="geometry"/>
                </mxCell>
                <mxCell id="27" value="" style="edgeStyle=none;html=1;fontColor=#FFFFFF;" parent="1" source="24" target="26" edge="1">
                    <mxGeometry relative="1" as="geometry"/>
                </mxCell>
                <mxCell id="24" value="PrintArray(firstArray);&lt;br&gt;PrintArray(newArray);" style="shape=parallelogram;perimeter=parallelogramPerimeter;whiteSpace=wrap;html=1;fixedSize=1;fontColor=#FFFFFF;fillColor=#000000;" parent="1" vertex="1">
                    <mxGeometry x="329" y="550" width="170" height="60" as="geometry"/>
                </mxCell>
                <mxCell id="26" value="finish" style="ellipse;whiteSpace=wrap;html=1;fontColor=#FFFFFF;fillColor=#000000;" parent="1" vertex="1">
                    <mxGeometry x="354" y="690" width="120" height="60" as="geometry"/>
                </mxCell>
            </root>
        </mxGraphModel>
    </diagram>
</mxfile>